<svg xmlns="http://www.w3.org/2000/svg" viewBox="0 0 960 540">
  <defs>
    <linearGradient id="room" x1="0" y1="0" x2="1" y2="1">
      <stop offset="0%" stop-color="#3a3040"/>
      <stop offset="100%" stop-color="#2a2030"/>
    </linearGradient>
  </defs>
  <rect width="960" height="540" fill="url(#room)"/>
  <!-- Easels -->
  <rect x="100" y="160" width="6" height="280" fill="#5a4a3a"/>
  <rect x="85" y="150" width="50" height="6" fill="#5a4a3a"/>
  <rect x="100" y="160" width="40" height="50" rx="2" fill="#fff9f0"/>
  <rect x="340" y="180" width="6" height="260" fill="#5a4a3a"/>
  <rect x="325" y="170" width="50" height="6" fill="#5a4a3a"/>
  <rect x="340" y="180" width="40" height="50" rx="2" fill="#fff9f0"/>
  <rect x="580" y="140" width="6" height="300" fill="#5a4a3a"/>
  <rect x="565" y="130" width="50" height="6" fill="#5a4a3a"/>
  <rect x="580" y="140" width="40" height="50" rx="2" fill="#fff9f0"/>
  <!-- Paintings on wall -->
  <rect x="730" y="80" width="140" height="100" rx="4" fill="#4a3a5a" stroke="#6a5a3a" stroke-width="3"/>
  <rect x="750" y="200" width="100" height="80" rx="4" fill="#3a4a3a" stroke="#6a5a3a" stroke-width="3"/>
  <!-- Paint splatters -->
  <circle cx="200" cy="400" r="15" fill="#c44" opacity="0.4"/>
  <circle cx="450" cy="420" r="10" fill="#48c" opacity="0.3"/>
  <circle cx="650" cy="390" r="20" fill="#4c4" opacity="0.3"/>
  <!-- Table with paints -->
  <rect x="680" y="340" width="200" height="12" rx="2" fill="#4a3a3a"/>
  <rect x="700" y="352" width="10" height="60" fill="#4a3a3a"/>
  <rect x="850" y="352" width="10" height="60" fill="#4a3a3a"/>
  <circle cx="710" cy="330" r="6" fill="#e44"/>
  <circle cx="730" cy="335" r="5" fill="#48e"/>
  <circle cx="748" cy="328" r="7" fill="#4e4"/>
  <circle cx="768" cy="332" r="5" fill="#ee4"/>
  <circle cx="788" cy="330" r="6" fill="#e4e"/>
</svg>