<svg xmlns="http://www.w3.org/2000/svg" viewBox="0 0 960 540">
  <defs>
    <linearGradient id="bg" x1="0" y1="0" x2="0" y2="1">
      <stop offset="0%" stop-color="#0a0a1a"/>
      <stop offset="100%" stop-color="#1a1a3a"/>
    </linearGradient>
    <linearGradient id="rain" x1="0" y1="0" x2="0.2" y2="1">
      <stop offset="0%" stop-color="#3a5a9a" stop-opacity="0.3"/>
      <stop offset="100%" stop-color="#1a2a4a" stop-opacity="0.1"/>
    </linearGradient>
  </defs>
  <rect width="960" height="540" fill="url(#bg)"/>
  <!-- Window -->
  <rect x="600" y="40" width="200" height="280" rx="4" fill="#0a0a20" stroke="#2a3a5a" stroke-width="2"/>
  <!-- Rain lines -->
  <g stroke="#4a6a9a" stroke-width="1" opacity="0.4">
    <line x1="615" y1="40" x2="610" y2="80"/><line x1="640" y1="50" x2="635" y2="100"/>
    <line x1="670" y1="30" x2="665" y2="90"/><line x1="700" y1="45" x2="695" y2="110"/>
    <line x1="730" y1="35" x2="725" y2="95"/><line x1="760" y1="55" x2="755" y2="120"/>
    <line x1="620" y1="100" x2="615" y2="140"/><line x1="660" y1="110" x2="655" y2="160"/>
    <line x1="710" y1="120" x2="705" y2="170"/><line x1="750" y1="100" x2="745" y2="150"/>
    <line x1="630" y1="160" x2="625" y2="200"/><line x1="690" y1="170" x2="685" y2="220"/>
    <line x1="740" y1="180" x2="735" y2="230"/><line x1="650" y1="220" x2="645" y2="260"/>
    <line x1="720" y1="230" x2="715" y2="280"/><line x1="670" y1="270" x2="665" y2="310"/>
  </g>
  <!-- Desk -->
  <rect x="100" y="280" width="280" height="16" rx="2" fill="#1a2a3a"/>
  <rect x="140" y="296" width="20" height="200" fill="#1a2530"/>
  <rect x="320" y="296" width="20" height="200" fill="#1a2530"/>
  <!-- Laptop -->
  <rect x="160" y="260" width="120" height="80" rx="4" fill="#0a1520"/>
  <rect x="170" y="265" width="100" height="60" rx="2" fill="#0d1d2d"/>
  <!-- Text on screen -->
  <text x="220" y="295" text-anchor="middle" fill="#4a7a4a" font-size="12" font-family="monospace">5154 / 5154</text>
  <!-- Chair -->
  <rect x="200" y="340" width="80" height="8" rx="2" fill="#1a2530"/>
  <rect x="200" y="348" width="6" height="40" fill="#1a2530"/>
  <rect x="274" y="348" width="6" height="40" fill="#1a2530"/>
  <rect x="200" y="360" width="80" height="4" fill="#1a2530"/>
  <!-- Clock -->
  <circle cx="140" cy="160" r="30" fill="none" stroke="#3a5a7a" stroke-width="2"/>
  <line x1="140" y1="160" x2="140" y2="142" stroke="#6a9a7a" stroke-width="1.5"/>
  <line x1="140" y1="160" x2="152" y2="155" stroke="#6a9a7a" stroke-width="1"/>
  <text x="140" y="210" text-anchor="middle" fill="#4a6a8a" font-size="12">04:46</text>
</svg>