<svg xmlns="http://www.w3.org/2000/svg" viewBox="0 0 960 540">
  <defs>
    <linearGradient id="bg" x1="0" y1="0" x2="0" y2="1">
      <stop offset="0%" stop-color="#1a0000"/>
      <stop offset="100%" stop-color="#0d0000"/>
    </linearGradient>
  </defs>
  <rect width="960" height="540" fill="url(#bg)"/>
  <!-- Scanlines -->
  <g stroke="#ff0000" stroke-width="0.5" opacity="0.05">
    <line x1="0" y1="20" x2="960" y2="20"/><line x1="0" y1="40" x2="960" y2="40"/>
    <line x1="0" y1="60" x2="960" y2="60"/><line x1="0" y1="80" x2="960" y2="80"/>
    <line x1="0" y1="100" x2="960" y2="100"/><line x1="0" y1="120" x2="960" y2="120"/>
    <line x1="0" y1="140" x2="960" y2="140"/><line x1="0" y1="160" x2="960" y2="160"/>
    <line x1="0" y1="180" x2="960" y2="180"/><line x1="0" y1="200" x2="960" y2="200"/>
    <line x1="0" y1="220" x2="960" y2="220"/><line x1="0" y1="240" x2="960" y2="240"/>
    <line x1="0" y1="260" x2="960" y2="260"/><line x1="0" y1="280" x2="960" y2="280"/>
    <line x1="0" y1="300" x2="960" y2="300"/><line x1="0" y1="320" x2="960" y2="320"/>
    <line x1="0" y1="340" x2="960" y2="340"/><line x1="0" y1="360" x2="960" y2="360"/>
    <line x1="0" y1="380" x2="960" y2="380"/><line x1="0" y1="400" x2="960" y2="400"/>
    <line x1="0" y1="420" x2="960" y2="420"/><line x1="0" y1="440" x2="960" y2="440"/>
    <line x1="0" y1="460" x2="960" y2="460"/><line x1="0" y1="480" x2="960" y2="480"/>
    <line x1="0" y1="500" x2="960" y2="500"/><line x1="0" y1="520" x2="960" y2="520"/>
  </g>
  <!-- Warning border -->
  <rect x="80" y="60" width="800" height="420" rx="8" fill="none" stroke="#cc2200" stroke-width="3" opacity="0.6"/>
  <rect x="90" y="70" width="780" height="400" rx="4" fill="none" stroke="#cc2200" stroke-width="1" opacity="0.3"/>
  <!-- Warning icon -->
  <circle cx="480" cy="180" r="36" fill="none" stroke="#ff4400" stroke-width="2.5" opacity="0.7"/>
  <text x="480" y="190" text-anchor="middle" fill="#ff4400" font-size="36" font-weight="bold" opacity="0.7">!</text>
  <!-- Warning text -->
  <text x="480" y="260" text-anchor="middle" fill="#ff6644" font-size="20" font-weight="bold" opacity="0.8">⚠ 规则违反警告 ⚠</text>
  <text x="480" y="310" text-anchor="middle" fill="#cc4422" font-size="14" opacity="0.6">禁止行为已被系统记录</text>
  <text x="480" y="340" text-anchor="middle" fill="#cc4422" font-size="14" opacity="0.5">继续违反将触发强制纠正</text>
  <!-- Bottom bar -->
  <rect x="200" y="390" width="560" height="3" fill="#440000" opacity="0.5"/>
  <text x="480" y="430" text-anchor="middle" fill="#662200" font-size="11" opacity="0.5">SYSTEM · 人类进化计划 · 警告模块 v2.1.0</text>
</svg>